<svg width="30" height="39" viewBox="0 0 30 39" fill="none" xmlns="http://www.w3.org/2000/svg">
<path d="M2.14286 34.6667C2.14286 37.05 4.07143 39 6.42857 39H23.5714C25.9286 39 27.8571 37.05 27.8571 34.6667V13C27.8571 10.6167 25.9286 8.66667 23.5714 8.66667H6.42857C4.07143 8.66667 2.14286 10.6167 2.14286 13V34.6667ZM27.8571 2.16667H22.5L20.9786 0.628333C20.5929 0.238333 20.0357 0 19.4786 0H10.5214C9.96428 0 9.40714 0.238333 9.02143 0.628333L7.5 2.16667H2.14286C0.964286 2.16667 0 3.14167 0 4.33333C0 5.525 0.964286 6.5 2.14286 6.5H27.8571C29.0357 6.5 30 5.525 30 4.33333C30 3.14167 29.0357 2.16667 27.8571 2.16667Z" fill="#404040"/>
</svg>
