<svg width="51" height="40" viewBox="0 0 51 40" fill="none" xmlns="http://www.w3.org/2000/svg">
<path d="M22.6331 1.04568C21.9634 0.376132 21.0551 0 20.1081 0C19.1611 0 18.2528 0.376132 17.5831 1.04568L1.51138 17.1174C0.841831 17.7871 0.465698 18.6954 0.465698 19.6424C0.465698 20.5894 0.841831 21.4977 1.51138 22.1674L17.5831 38.2391C18.2566 38.8897 19.1588 39.2497 20.0952 39.2415C21.0317 39.2334 21.9274 38.8578 22.5896 38.1956C23.2518 37.5334 23.6274 36.6376 23.6356 35.7012C23.6437 34.7648 23.2837 33.8626 22.6331 33.189L12.9651 23.2139H46.8942C47.8414 23.2139 48.7499 22.8376 49.4196 22.1678C50.0894 21.498 50.4657 20.5896 50.4657 19.6424C50.4657 18.6952 50.0894 17.7868 49.4196 17.117C48.7499 16.4472 47.8414 16.0709 46.8942 16.0709H12.9651L22.6331 6.09576C23.3027 5.42601 23.6788 4.51775 23.6788 3.57072C23.6788 2.62369 23.3027 1.71543 22.6331 1.04568Z" fill="#404040"/>
</svg>
