<svg width="50" height="40" viewBox="0 0 50 40" fill="none" xmlns="http://www.w3.org/2000/svg">
<path d="M27.8326 1.11331C28.5023 0.443759 29.4106 0.067627 30.3576 0.067627C31.3046 0.067627 32.2129 0.443759 32.8826 1.11331L48.9543 17.185C49.6239 17.8547 50 18.763 50 19.71C50 20.657 49.6239 21.5653 48.9543 22.2351L32.8826 38.3067C32.2091 38.9573 31.3069 39.3173 30.3705 39.3092C29.434 39.301 28.5383 38.9254 27.8761 38.2632C27.2139 37.601 26.8383 36.7053 26.8301 35.7688C26.822 34.8324 27.182 33.9302 27.8326 33.2567L37.5006 23.2815H3.57148C2.62427 23.2815 1.71585 22.9052 1.04606 22.2354C0.37628 21.5657 0 20.6572 0 19.71C0 18.7628 0.37628 17.8544 1.04606 17.1846C1.71585 16.5148 2.62427 16.1385 3.57148 16.1385H37.5006L27.8326 6.16339C27.163 5.49363 26.7869 4.58538 26.7869 3.63835C26.7869 2.69132 27.163 1.78306 27.8326 1.11331Z" fill="#323232"/>
</svg>
